<svg version="1.1" id="Layer_1" xmlns="http://www.w3.org/2000/svg" xmlns:xlink="http://www.w3.org/1999/xlink" x="0px" y="0px"
	 width="100%" viewBox="0 0 300 168" enable-background="new 0 0 300 168" xml:space="preserve">
<path fill="#FFFFFF" opacity="1.000000" stroke="none" 
	d="
M197.000000,169.000000 
	C131.333344,169.000000 66.166679,169.000000 1.000018,169.000000 
	C1.000012,113.000015 1.000012,57.000031 1.000006,1.000033 
	C100.999969,1.000022 200.999939,1.000022 300.999939,1.000011 
	C300.999939,56.999966 300.999939,112.999931 300.999969,168.999939 
	C266.500000,169.000000 232.000000,169.000000 197.000000,169.000000 
M77.875847,43.759975 
	C77.907257,44.843380 77.938667,45.926781 77.791626,47.932411 
	C77.777245,69.173981 77.730309,90.415596 77.765511,111.657082 
	C77.778427,119.447716 77.985825,127.238029 78.088509,135.687790 
	C78.363480,135.997406 78.638458,136.307022 78.698494,137.296509 
	C82.053131,146.970642 91.106224,151.777298 100.787437,149.024460 
	C108.817123,146.741226 113.874481,139.559464 113.935791,130.076492 
	C114.048500,112.644318 114.072601,95.211578 114.762085,78.036125 
	C127.325226,88.886612 139.888367,99.737091 152.672012,110.778008 
	C165.288849,99.676132 177.638138,88.809692 190.426804,77.864861 
	C190.426804,77.864861 190.866043,77.785156 191.022644,78.738281 
	C191.032486,96.066978 191.051666,113.395683 191.047180,130.724380 
	C191.045593,136.908142 193.091141,142.208374 198.085403,145.986588 
	C203.999390,150.460571 210.466675,151.430313 217.297653,148.104935 
	C224.515152,144.591415 227.717422,138.470657 227.781235,130.755142 
	C227.924545,113.427513 227.864609,96.097786 227.814194,78.769127 
	C227.777374,66.114067 227.623825,53.459358 227.671951,40.015987 
	C228.141785,31.437778 225.146912,24.655855 217.166138,20.798761 
	C209.101974,16.901361 202.008713,19.129641 195.671707,24.853121 
	C194.071533,26.298368 192.511307,27.787832 190.501587,29.317640 
	C190.251007,29.491192 190.085464,29.724983 189.375702,30.250185 
	C177.113266,40.880791 164.850830,51.511395 152.774643,61.980534 
	C148.266159,58.489147 144.093567,55.522675 140.221298,52.205601 
	C131.392929,44.643002 122.711777,36.908539 113.327965,28.956089 
	C111.953751,27.784697 110.240646,26.843523 109.262222,25.403257 
	C104.218681,17.979050 90.648376,17.813684 84.566566,22.740072 
	C77.896629,28.142853 76.786430,35.113972 77.875847,43.759975 
z"/>
<path fill="#EA4335" opacity="1.000000" stroke="none" 
	d="
M113.970810,29.243904 
	C122.711777,36.908539 131.392929,44.643002 140.221298,52.205601 
	C144.093567,55.522675 148.266159,58.489147 152.774643,61.980534 
	C164.850830,51.511395 177.113266,40.880791 189.783966,30.339176 
	C190.361877,30.690916 190.595322,30.870943 190.941559,31.436626 
	C190.958267,46.618118 190.925980,61.331226 190.669189,76.206947 
	C190.292252,76.894119 190.139832,77.418686 189.987427,77.943245 
	C177.638138,88.809692 165.288849,99.676132 152.672012,110.778008 
	C139.888367,99.737091 127.325226,88.886612 114.385361,77.692001 
	C114.008636,77.347885 113.902092,76.911705 113.943405,76.452820 
	C113.980072,60.410587 113.975441,44.827248 113.970810,29.243904 
z"/>
<path fill="#36A955" opacity="1.000000" stroke="none" 
	d="
M227.522308,40.804497 
	C227.623825,53.459358 227.777374,66.114067 227.814194,78.769127 
	C227.864609,96.097786 227.924545,113.427513 227.781235,130.755142 
	C227.717422,138.470657 224.515152,144.591415 217.297653,148.104935 
	C210.466675,151.430313 203.999390,150.460571 198.085403,145.986588 
	C193.091141,142.208374 191.045593,136.908142 191.047180,130.724380 
	C191.051666,113.395683 191.032486,96.066978 191.006012,78.068008 
	C190.989380,77.397728 191.119217,77.012161 191.422089,76.881790 
	C201.034012,68.700890 210.572662,60.894695 219.533569,52.473690 
	C222.888794,49.320648 224.898911,44.736275 227.522308,40.804497 
z"/>
<path fill="#4385F4" opacity="1.000000" stroke="none" 
	d="
M113.902092,76.911705 
	C113.902092,76.911705 114.008636,77.347885 114.071136,77.563477 
	C114.072601,95.211578 114.048500,112.644318 113.935791,130.076492 
	C113.874481,139.559464 108.817123,146.741226 100.787437,149.024460 
	C91.106224,151.777298 82.053131,146.970642 78.763702,136.647430 
	C78.587448,135.675064 78.345978,135.351776 78.104507,135.028488 
	C77.985825,127.238029 77.778427,119.447716 77.765511,111.657082 
	C77.730309,90.415596 77.777245,69.173981 78.156815,47.299503 
	C78.751312,46.302357 78.980629,45.938122 79.472885,45.800308 
	C80.950462,47.587666 81.950745,49.394554 83.414230,50.669930 
	C93.522820,59.479195 103.727974,68.177643 113.902092,76.911705 
z"/>
<path fill="#FABC05" opacity="1.000000" stroke="none" 
	d="
M227.597137,40.410244 
	C224.898911,44.736275 222.888794,49.320648 219.533569,52.473690 
	C210.572662,60.894695 201.034012,68.700890 191.371735,76.638550 
	C191.018478,76.525673 190.893707,76.044334 190.893707,76.044334 
	C190.925980,61.331226 190.958267,46.618118 190.979462,31.152977 
	C190.956497,30.019625 190.944626,29.638308 190.932739,29.256987 
	C192.511307,27.787832 194.071533,26.298368 195.671707,24.853121 
	C202.008713,19.129641 209.101974,16.901361 217.166138,20.798761 
	C225.146912,24.655855 228.141785,31.437778 227.597137,40.410244 
z"/>
<path fill="#C5231F" opacity="1.000000" stroke="none" 
	d="
M113.943405,76.452820 
	C103.727974,68.177643 93.522820,59.479195 83.414230,50.669930 
	C81.950745,49.394554 80.950462,47.587666 79.418793,45.510593 
	C78.743225,44.315323 78.384674,43.636196 78.026131,42.957069 
	C76.786430,35.113972 77.896629,28.142853 84.566566,22.740072 
	C90.648376,17.813684 104.218681,17.979050 109.262222,25.403257 
	C110.240646,26.843523 111.953751,27.784697 113.649384,29.099998 
	C113.975441,44.827248 113.980072,60.410587 113.943405,76.452820 
z"/>
<path fill="#347EF2" opacity="1.000000" stroke="none" 
	d="
M77.950989,43.358521 
	C78.384674,43.636196 78.743225,44.315323 79.155853,45.284164 
	C78.980629,45.938122 78.751312,46.302357 78.246033,46.838390 
	C77.938667,45.926781 77.907257,44.843380 77.950989,43.358521 
z"/>
<path fill="#E93738" opacity="1.000000" stroke="none" 
	d="
M190.717163,29.287315 
	C190.944626,29.638308 190.956497,30.019625 190.930481,30.684593 
	C190.595322,30.870943 190.361877,30.690916 190.098602,30.223591 
	C190.085464,29.724983 190.251007,29.491192 190.717163,29.287315 
z"/>
<path fill="#E93738" opacity="1.000000" stroke="none" 
	d="
M190.669189,76.206947 
	C190.893707,76.044334 191.018478,76.525673 191.068848,76.768921 
	C191.119217,77.012161 190.989380,77.397728 190.927704,77.591446 
	C190.866043,77.785156 190.426804,77.864861 190.207123,77.904053 
	C190.139832,77.418686 190.292252,76.894119 190.669189,76.206947 
z"/>
<path fill="#347EF2" opacity="1.000000" stroke="none" 
	d="
M78.096512,135.358139 
	C78.345978,135.351776 78.587448,135.675064 78.871170,136.307495 
	C78.638458,136.307022 78.363480,135.997406 78.096512,135.358139 
z"/>
</svg>