<svg version="1.1" id="Layer_1" xmlns="http://www.w3.org/2000/svg" xlink="http://www.w3.org/1999/xlink" x="0px" y="0px"
	 width="100%" viewBox="0 0 56 56" enable-background="new 0 0 56 56" xml:space="preserve">
<path fill="#FCFDFE" opacity="1.000000" stroke="none" 
	d="
M38.001724,57.000000 
	C25.334642,57.000000 13.168024,57.000000 1.001055,57.000000 
	C1.000703,38.333878 1.000703,19.667755 1.000352,1.001225 
	C19.666046,1.000817 38.332092,1.000817 56.998604,1.000408 
	C56.999069,19.665972 56.999069,38.331944 56.999535,56.998955 
	C50.834064,57.000000 44.668129,57.000000 38.001724,57.000000 
M55.846992,29.499996 
	C55.846924,22.671646 55.869404,15.843196 55.839783,9.014974 
	C55.815258,3.361017 54.704197,2.179518 49.235680,2.165646 
	C35.745628,2.131427 22.254463,2.246480 8.765842,2.103544 
	C4.163952,2.054779 2.052053,3.717368 2.102810,8.514835 
	C2.247281,22.169985 2.226718,35.828274 2.111103,49.483974 
	C2.074061,53.859203 3.725503,55.919159 8.264603,55.884014 
	C22.086998,55.777000 35.911282,55.776939 49.733673,55.884052 
	C54.271671,55.919220 55.990685,53.864075 55.885414,49.485126 
	C55.733356,43.160080 55.846786,36.828651 55.846992,29.499996 
z"/>
<path fill="#097AB6" opacity="1.000000" stroke="none" 
	d="
M55.846970,29.999971 
	C55.846786,36.828651 55.733356,43.160080 55.885414,49.485126 
	C55.990685,53.864075 54.271671,55.919220 49.733673,55.884052 
	C35.911282,55.776939 22.086998,55.777000 8.264603,55.884014 
	C3.725503,55.919159 2.074061,53.859203 2.111103,49.483974 
	C2.226718,35.828274 2.247281,22.169985 2.102810,8.514835 
	C2.052053,3.717368 4.163952,2.054779 8.765842,2.103544 
	C22.254463,2.246480 35.745628,2.131427 49.235680,2.165646 
	C54.704197,2.179518 55.815258,3.361017 55.839783,9.014974 
	C55.869404,15.843196 55.846924,22.671646 55.846970,29.999971 
M44.084427,23.105701 
	C39.637093,20.851992 35.443340,21.137684 32.870556,23.310188 
	C29.033070,22.730795 26.340656,22.324289 23.340759,21.871359 
	C23.340759,30.955862 23.340759,39.200882 23.340759,47.568298 
	C25.990818,47.568298 28.366018,47.568298 31.077089,47.568298 
	C31.077089,42.915844 30.967722,38.600891 31.116255,34.294838 
	C31.212292,31.510664 31.855724,28.876711 35.511471,28.810364 
	C39.266674,28.742212 39.797764,31.399118 39.868011,34.203323 
	C39.979313,38.646465 39.897678,43.094444 39.897678,47.546371 
	C42.884083,47.546371 45.259369,47.546371 47.902214,47.546371 
	C47.902214,42.369995 48.283646,37.515587 47.767120,32.758675 
	C47.426964,29.626019 45.793304,26.633814 44.084427,23.105701 
M10.113308,46.101055 
	C12.547132,46.908226 14.980955,47.715397 17.842999,48.664585 
	C17.842999,39.074009 17.842999,30.850321 17.842999,22.498047 
	C15.193295,22.498047 12.821918,22.498047 10.098799,22.498047 
	C10.098799,30.279280 10.098799,37.726009 10.113308,46.101055 
M13.682065,18.869474 
	C17.076540,18.726288 19.385723,16.813400 18.546797,13.623459 
	C18.120668,12.003148 15.244992,10.580221 13.218283,10.043147 
	C12.383971,9.822057 9.753559,12.336042 9.901450,13.307331 
	C10.193782,15.227233 11.852062,16.939152 13.682065,18.869474 
z"/>
<path fill="#F5FAFC" opacity="1.000000" stroke="none" 
	d="
M44.411636,23.342209 
	C45.793304,26.633814 47.426964,29.626019 47.767120,32.758675 
	C48.283646,37.515587 47.902214,42.369995 47.902214,47.546371 
	C45.259369,47.546371 42.884083,47.546371 39.897678,47.546371 
	C39.897678,43.094444 39.979313,38.646465 39.868011,34.203323 
	C39.797764,31.399118 39.266674,28.742212 35.511471,28.810364 
	C31.855724,28.876711 31.212292,31.510664 31.116255,34.294838 
	C30.967722,38.600891 31.077089,42.915844 31.077089,47.568298 
	C28.366018,47.568298 25.990818,47.568298 23.340759,47.568298 
	C23.340759,39.200882 23.340759,30.955862 23.340759,21.871359 
	C26.340656,22.324289 29.033070,22.730795 32.870556,23.310188 
	C35.443340,21.137684 39.637093,20.851992 44.411636,23.342209 
z"/>
<path fill="#F5F9FC" opacity="1.000000" stroke="none" 
	d="
M10.106053,45.636894 
	C10.098799,37.726009 10.098799,30.279280 10.098799,22.498047 
	C12.821918,22.498047 15.193295,22.498047 17.842999,22.498047 
	C17.842999,30.850321 17.842999,39.074009 17.842999,48.664585 
	C14.980955,47.715397 12.547132,46.908226 10.106053,45.636894 
z"/>
<path fill="#EFF6FA" opacity="1.000000" stroke="none" 
	d="
M13.313818,18.803268 
	C11.852062,16.939152 10.193782,15.227233 9.901450,13.307331 
	C9.753559,12.336042 12.383971,9.822057 13.218283,10.043147 
	C15.244992,10.580221 18.120668,12.003148 18.546797,13.623459 
	C19.385723,16.813400 17.076540,18.726288 13.313818,18.803268 
z"/>
</svg>